<svg xmlns="http://www.w3.org/2000/svg" width="33" height="30" fill="none"><g fill="red"><path d="M9 3H6v3h3V3ZM6 3H3v3h3V3ZM9 6H6v3h3V6ZM12 9H9v3h3V9ZM15 6h-3v3h3V6ZM12 3H9v3h3V3ZM6 6H3v3h3V6ZM6 9H3v3h3V9ZM6 12H3v3h3v-3ZM3 6H0v3h3V6ZM3 9H0v3h3V9ZM3 12H0v3h3v-3ZM15 3h-3v3h3V3ZM9 12H6v3h3v-3ZM9 15H6v3h3v-3ZM12 12H9v3h3v-3ZM12 15H9v3h3v-3ZM12 18H9v3h3v-3ZM15 12h-3v3h3v-3ZM15 9h-3v3h3V9ZM15 18h-3v3h3v-3ZM15 15h-3v3h3v-3ZM15 21h-3v3h3v-3ZM24 3h3v3h-3V3ZM27 3h3v3h-3V3ZM24 6h3v3h-3V6ZM21 6h3v3h-3V6ZM24 9h3v3h-3V9ZM21 9h3v3h-3V9ZM18 6h3v3h-3V6ZM21 3h3v3h-3V3ZM27 6h3v3h-3V6ZM30 6h3v3h-3V6ZM30 9h3v3h-3V9ZM30 12h3v3h-3v-3ZM27 9h3v3h-3V9ZM27 12h3v3h-3v-3ZM18 3h3v3h-3V3ZM9 0H6v3h3V0ZM12 0H9v3h3V0ZM15 0h-3v3h3V0ZM24 0h3v3h-3V0ZM21 0h3v3h-3V0ZM18 0h3v3h-3V0ZM24 12h3v3h-3v-3ZM24 15h3v3h-3v-3ZM21 12h3v3h-3v-3ZM21 15h3v3h-3v-3ZM21 18h3v3h-3v-3ZM18 12h3v3h-3v-3ZM18 9h3v3h-3V9ZM18 18h3v3h-3v-3ZM18 15h3v3h-3v-3ZM18 21h3v3h-3v-3ZM18 6h-3v3h3V6ZM18 3h-3v3h3V3ZM18 12h-3v3h3v-3ZM18 9h-3v3h3V9ZM18 18h-3v3h3v-3ZM18 15h-3v3h3v-3ZM18 21h-3v3h3v-3ZM18 24h-3v3h3v-3ZM18 27h-3v3h3v-3ZM27 15h3v3h-3v-3ZM24 18h3v3h-3v-3ZM21 21h3v3h-3v-3ZM21 24h-3v3h3v-3ZM6 15H3v3h3v-3ZM9 18H6v3h3v-3ZM12 21H9v3h3v-3ZM15 24h-3v3h3v-3Z"/></g></svg>